<svg id="Layer_1" data-name="Layer 1" xmlns="http://www.w3.org/2000/svg" viewBox="0 0 373.23 116.01"><defs><style>.cls-1{fill:#2f386c;}</style></defs><path class="cls-1" d="M161.39,69.91V51.24H140.3V69.91H129.78V22.73H140.3V41.61h21.09V22.73h10.38V69.91Z" transform="translate(-21.28 -12.82)"/><path class="cls-1" d="M206.07,36.55h9.1v33.3h-8.76l-.54-4.18c-2.22,3.5-7,4.85-10.24,4.92-10,.06-17.19-6.41-17.19-17.39s7.62-17.52,17.46-17.39c4.18,0,8.09,1.62,9.84,4.58ZM188.15,53.2c0,5.53,3.91,8.76,8.76,8.76a8.56,8.56,0,0,0,8.83-8.42c0-4.79-3-9.17-8.83-9.17A8.4,8.4,0,0,0,188.15,53.2Z" transform="translate(-21.28 -12.82)"/><path class="cls-1" d="M247.39,69.85V52.26c0-5.13-2.23-7.76-6.88-7.76S233,48.35,233,52.66V69.85h-9.57V36.55h8.77l.33,4.25a12.6,12.6,0,0,1,10.79-5.06c7.48,0,13.88,3.51,13.88,16.45V69.85Z" transform="translate(-21.28 -12.82)"/><path class="cls-1" d="M285.87,46A12.67,12.67,0,0,0,278,43.56c-3.16,0-4.78,1.15-4.78,2.76,0,1.82,1.68,2.83,4.92,2.9,6.54.2,14.42,1.55,14.49,10.72.07,5.39-4,11.19-14.56,11.19a22.62,22.62,0,0,1-15.63-5.66l4.17-6.88a17.86,17.86,0,0,0,11.6,4.18c2.83.07,5.05-1.08,5-2.83,0-1.55-1.14-2.83-5.66-3-6.2-.27-13.95-2.83-13.95-10.65,0-7.54,7.15-10.71,14.36-10.71,5.12,0,9.23,1.28,12.74,4.31Z" transform="translate(-21.28 -12.82)"/><path class="cls-1" d="M340.8,61.76H316.6l-3.44,8.09H301.84L323,22.67h11.46l21.16,47.18H344.23ZM328.73,33.32l-8.15,19.14h16.24Z" transform="translate(-21.28 -12.82)"/><path class="cls-1" d="M384.2,36.55h9.1v33.3h-8.76L384,65.67c-2.23,3.5-7,4.85-10.25,4.92-10,.06-17.18-6.41-17.18-17.39S364.18,35.68,374,35.81c4.18,0,8.09,1.62,9.84,4.58ZM366.27,53.2c0,5.53,3.91,8.76,8.76,8.76a8.56,8.56,0,0,0,8.83-8.42c0-4.79-3-9.17-8.83-9.17A8.4,8.4,0,0,0,366.27,53.2Z" transform="translate(-21.28 -12.82)"/><path class="cls-1" d="M131.29,80.84h-1.5V79.77h6.59a4,4,0,0,1,2.17.56,3.67,3.67,0,0,1,1.3,1.39,3.84,3.84,0,0,1,.44,1.81,3.88,3.88,0,0,1-.44,1.82,3.67,3.67,0,0,1-1.3,1.39,3.89,3.89,0,0,1-2.17.57h-4v3.06h1.5v1h-4.11v-1h1.48Zm5.09,5.45a2.72,2.72,0,0,0,1.53-.4,2.71,2.71,0,0,0,1.23-2.32,2.79,2.79,0,0,0-.31-1.32,2.64,2.64,0,0,0-2.45-1.41h-4v5.45Z" transform="translate(-21.28 -12.82)"/><path class="cls-1" d="M142.88,84.17h-1.43v-1h2.38l.1,1.36a2.48,2.48,0,0,1,1.1-1.12,3.4,3.4,0,0,1,1.58-.37,2.93,2.93,0,0,1,.94.14,3.74,3.74,0,0,1,.89.41l-.49.91a3.18,3.18,0,0,0-.68-.31,2.52,2.52,0,0,0-.73-.1,2.58,2.58,0,0,0-1.89.74,2.55,2.55,0,0,0-.69,1.87v3.74h1.4v1h-3.89v-1h1.41Z" transform="translate(-21.28 -12.82)"/><path class="cls-1" d="M149,87.33a4.58,4.58,0,0,1,.33-1.77,3.83,3.83,0,0,1,.89-1.35,4.13,4.13,0,0,1,1.34-.87,4.68,4.68,0,0,1,3.35,0,3.91,3.91,0,0,1,2.23,2.23,4.52,4.52,0,0,1,.33,1.76,4.42,4.42,0,0,1-.33,1.74,3.64,3.64,0,0,1-.9,1.33,4,4,0,0,1-1.34.85,4.62,4.62,0,0,1-1.67.3,4.55,4.55,0,0,1-1.67-.3,4.08,4.08,0,0,1-1.34-.85,3.75,3.75,0,0,1-.89-1.33A4.42,4.42,0,0,1,149,87.33Zm7.4,0a3.47,3.47,0,0,0-.25-1.36,3.11,3.11,0,0,0-.67-1,3,3,0,0,0-1-.67,3.34,3.34,0,0,0-1.24-.23,3.37,3.37,0,0,0-1.24.23,2.93,2.93,0,0,0-1,.67,3.11,3.11,0,0,0-.67,1,3.66,3.66,0,0,0-.24,1.36,3.52,3.52,0,0,0,.24,1.32,2.93,2.93,0,0,0,.67,1,2.84,2.84,0,0,0,1,.65,3.15,3.15,0,0,0,1.24.24,3.22,3.22,0,0,0,1.24-.24,2.88,2.88,0,0,0,1-.65,2.93,2.93,0,0,0,.67-1A3.34,3.34,0,0,0,156.4,87.33Z" transform="translate(-21.28 -12.82)"/><path class="cls-1" d="M161.16,80.75v2.47h2.68v.91h-2.7v4.68a2.46,2.46,0,0,0,.29,1.27,1.21,1.21,0,0,0,1.13.47,2.44,2.44,0,0,0,.62-.09,3.25,3.25,0,0,0,.64-.24l.33.9a4,4,0,0,1-1.61.41,2.24,2.24,0,0,1-1.9-.7,3.22,3.22,0,0,1-.56-2V84.13h-1.7v-.91h1.7V80.87Z" transform="translate(-21.28 -12.82)"/><path class="cls-1" d="M172.85,90a3.7,3.7,0,0,1-1.59,1.14,5.35,5.35,0,0,1-1.95.37,4.65,4.65,0,0,1-1.69-.29,3.8,3.8,0,0,1-1.34-.84,4,4,0,0,1-.89-1.34,4.69,4.69,0,0,1-.32-1.77,4.52,4.52,0,0,1,.31-1.71,3.94,3.94,0,0,1,2.2-2.21,4.37,4.37,0,0,1,1.68-.32,5.05,5.05,0,0,1,1.7.28,3.5,3.5,0,0,1,1.37.84,3.63,3.63,0,0,1,.86,1.47,5,5,0,0,1,.18,2.1h-7.22a3.17,3.17,0,0,0,.34,1.2,3,3,0,0,0,.7.87,2.88,2.88,0,0,0,1,.54,3.77,3.77,0,0,0,1.17.19,4.5,4.5,0,0,0,.79-.08,4.1,4.1,0,0,0,.78-.22,4.24,4.24,0,0,0,.7-.37,2.35,2.35,0,0,0,.54-.5Zm-.5-3.18a2.69,2.69,0,0,0-.86-2.09,3.27,3.27,0,0,0-2.21-.72,3.48,3.48,0,0,0-1.13.18,3.22,3.22,0,0,0-1,.54,2.94,2.94,0,0,0-.7.89,3.23,3.23,0,0,0-.34,1.2Z" transform="translate(-21.28 -12.82)"/><path class="cls-1" d="M182.27,90.29a4.18,4.18,0,0,1-1.43.94,4.65,4.65,0,0,1-1.63.3,5,5,0,0,1-1.7-.28,4.17,4.17,0,0,1-1.4-.82,3.77,3.77,0,0,1-.94-1.33,4.53,4.53,0,0,1-.34-1.79,4.75,4.75,0,0,1,.34-1.84,3.88,3.88,0,0,1,.93-1.33,4,4,0,0,1,1.38-.81,5.47,5.47,0,0,1,1.68-.26,5,5,0,0,1,1.45.21,6.45,6.45,0,0,1,1.34.6l0,2h-1V84.45a2.36,2.36,0,0,0-.87-.3,5.19,5.19,0,0,0-.92-.09,3.78,3.78,0,0,0-1.28.22,2.79,2.79,0,0,0-1.72,1.66,3.68,3.68,0,0,0-.25,1.37,3.44,3.44,0,0,0,.26,1.36,2.84,2.84,0,0,0,.71,1,2.9,2.9,0,0,0,1.05.61,3.82,3.82,0,0,0,1.28.21,3.72,3.72,0,0,0,1.26-.22,2.86,2.86,0,0,0,1.1-.71Z" transform="translate(-21.28 -12.82)"/><path class="cls-1" d="M185.78,80.75v2.47h2.67v.91h-2.69v4.68a2.47,2.47,0,0,0,.28,1.27,1.23,1.23,0,0,0,1.13.47,2.51,2.51,0,0,0,.63-.09,3.51,3.51,0,0,0,.64-.24l.33.9a4,4,0,0,1-1.61.41,2.24,2.24,0,0,1-1.9-.7,3.15,3.15,0,0,1-.56-2V84.13H183v-.91h1.7V80.87Z" transform="translate(-21.28 -12.82)"/><path class="cls-1" d="M192.16,83.17v7.27h1.45v1h-4v-1h1.45V84.15h-1.41v-1Zm-.53-1.82a.84.84,0,0,1-.52-.18.66.66,0,0,1-.24-.56.67.67,0,0,1,.24-.57.84.84,0,0,1,1,0,.77.77,0,0,1,0,1.14A.83.83,0,0,1,191.63,81.35Z" transform="translate(-21.28 -12.82)"/><path class="cls-1" d="M197.1,90.44h1.37v1h-3.9v-1H196V84.17h-1.43v-1H197l0,1.48a3.14,3.14,0,0,1,1.31-1.26,3.63,3.63,0,0,1,1.62-.37,3.48,3.48,0,0,1,2.66,1,3.93,3.93,0,0,1,.9,2.77v3.65H205v1h-3.83v-1h1.29V86.81a2.94,2.94,0,0,0-.63-2.08,2.55,2.55,0,0,0-1.94-.67,2.89,2.89,0,0,0-1.11.21,2.71,2.71,0,0,0-.89.59,2.8,2.8,0,0,0-.59.91,2.89,2.89,0,0,0-.22,1.16Z" transform="translate(-21.28 -12.82)"/><path class="cls-1" d="M207.17,92.91a2.09,2.09,0,0,0,.24,1.09,2.24,2.24,0,0,0,.7.74,3.48,3.48,0,0,0,1,.43,5.06,5.06,0,0,0,1.17.14,5.33,5.33,0,0,0,1.12-.12,3.5,3.5,0,0,0,1-.37,2.14,2.14,0,0,0,.71-.66,1.6,1.6,0,0,0,.28-1,1.67,1.67,0,0,0-.28-1,2.15,2.15,0,0,0-.7-.64,3.4,3.4,0,0,0-1-.37,5.5,5.5,0,0,0-1.13-.12,5.3,5.3,0,0,1-1.74-.26,3.88,3.88,0,0,1-1.36-.78,3.71,3.71,0,0,1-.88-1.27,4.38,4.38,0,0,1-.31-1.71,3.91,3.91,0,0,1,.37-1.77,3.79,3.79,0,0,1,1-1.27,4.21,4.21,0,0,1,1.38-.75,4.88,4.88,0,0,1,1.55-.25,5.32,5.32,0,0,1,1.27.16,3.31,3.31,0,0,1,1.14.5l.86-1.05.77.6-.9,1.07a4.24,4.24,0,0,1,.43.52,3,3,0,0,1,.35.61,3.68,3.68,0,0,1,.24.73,4.13,4.13,0,0,1,.1.9,3.92,3.92,0,0,1-.15,1,3.75,3.75,0,0,1-.45,1,3.44,3.44,0,0,1-.77.85,2.88,2.88,0,0,1-1.11.54,3.5,3.5,0,0,1,1.78,1,2.44,2.44,0,0,1,.63,1.71,2.53,2.53,0,0,1-.36,1.36,3.06,3.06,0,0,1-1,1,4.57,4.57,0,0,1-1.35.59,6.73,6.73,0,0,1-1.56.19,5.8,5.8,0,0,1-1.64-.23,4.12,4.12,0,0,1-1.31-.65,3.11,3.11,0,0,1-.87-1.07,3.06,3.06,0,0,1-.3-1.45Zm-.12-5.85a3.27,3.27,0,0,0,.26,1.34,2.68,2.68,0,0,0,.69.95,2.86,2.86,0,0,0,1,.58,4,4,0,0,0,1.26.19,3.42,3.42,0,0,0,1.3-.24,3,3,0,0,0,1-.67,2.9,2.9,0,0,0,.65-1,3.1,3.1,0,0,0,.22-1.18,3.2,3.2,0,0,0-.27-1.36,2.9,2.9,0,0,0-.73-1,2.85,2.85,0,0,0-1-.57,3.86,3.86,0,0,0-1.17-.18,4,4,0,0,0-1.17.18,3.08,3.08,0,0,0-1,.56,2.87,2.87,0,0,0-.74,1A3,3,0,0,0,207.05,87.06Z" transform="translate(-21.28 -12.82)"/><path class="cls-1" d="M222.37,91.42V90.35h1.56V80.82h-3.07l0,1.81h-1V79.77h9.42v2.86h-1l-.05-1.81h-3.08v9.53h1.55v1.07Z" transform="translate(-21.28 -12.82)"/><path class="cls-1" d="M231.58,80.72h-1.43v-1h2.5v5A3,3,0,0,1,234,83.47a3.81,3.81,0,0,1,1.64-.37,3.14,3.14,0,0,1,2.56,1,4,4,0,0,1,.84,2.68v3.67h1.43v1h-3.74v-1h1.23V86.81c0-1.77-.82-2.67-2.46-2.69a2.93,2.93,0,0,0-1.12.2,2.71,2.71,0,0,0-.89.59,2.8,2.8,0,0,0-.59.91,3,3,0,0,0-.22,1.14v3.49H234v1h-3.89v-1h1.46Z" transform="translate(-21.28 -12.82)"/><path class="cls-1" d="M249.18,90a3.7,3.7,0,0,1-1.59,1.14,5.39,5.39,0,0,1-2,.37,4.65,4.65,0,0,1-1.69-.29,3.72,3.72,0,0,1-1.34-.84,3.83,3.83,0,0,1-.89-1.34,5,5,0,0,1,0-3.48,3.86,3.86,0,0,1,.88-1.34,4,4,0,0,1,1.32-.87,4.37,4.37,0,0,1,1.68-.32,5.05,5.05,0,0,1,1.7.28,3.58,3.58,0,0,1,1.37.84,3.63,3.63,0,0,1,.86,1.47,5.17,5.17,0,0,1,.18,2.1h-7.22a3.17,3.17,0,0,0,.34,1.2,2.83,2.83,0,0,0,.7.87,2.79,2.79,0,0,0,1,.54,3.71,3.71,0,0,0,1.16.19,4.52,4.52,0,0,0,.8-.08,4.1,4.1,0,0,0,.78-.22,3.78,3.78,0,0,0,.69-.37,2.21,2.21,0,0,0,.55-.5Zm-.5-3.18a2.69,2.69,0,0,0-.86-2.09A3.28,3.28,0,0,0,245.6,84a3.56,3.56,0,0,0-1.13.18,3.3,3.3,0,0,0-.95.54,2.8,2.8,0,0,0-.7.89,3.23,3.23,0,0,0-.34,1.2Z" transform="translate(-21.28 -12.82)"/><path class="cls-1" d="M255.57,91.42v-1h1.51V80.82h-1.5v-1h9.1v2.85h-1l0-1.82h-5.41v4.28h5.34v1.06h-5.34v4.23h1.58v1Z" transform="translate(-21.28 -12.82)"/><path class="cls-1" d="M274.26,90.44h1.45v1h-2.33l-.16-1.5a3.28,3.28,0,0,1-1.29,1.23,3.7,3.7,0,0,1-1.69.4,3.4,3.4,0,0,1-2.66-1,3.92,3.92,0,0,1-.9-2.74V84.15h-1.36v-1h2.44v4.61c0,1.82.89,2.73,2.66,2.73a2.76,2.76,0,0,0,2-.84,2.59,2.59,0,0,0,.56-.9,3,3,0,0,0,.2-1.13V84.15h-1.43v-1h2.51Z" transform="translate(-21.28 -12.82)"/><path class="cls-1" d="M279,80.75v2.47h2.68v.91H279v4.68a2.47,2.47,0,0,0,.28,1.27,1.23,1.23,0,0,0,1.13.47,2.38,2.38,0,0,0,.62-.09,3.35,3.35,0,0,0,.65-.24l.33.9a4,4,0,0,1-1.62.41,2.23,2.23,0,0,1-1.89-.7,3.16,3.16,0,0,1-.57-2V84.13h-1.69v-.91h1.69V80.87Z" transform="translate(-21.28 -12.82)"/><path class="cls-1" d="M291.4,90.44h1.44v1h-2.33l-.16-1.5a3.26,3.26,0,0,1-1.28,1.23,3.77,3.77,0,0,1-1.7.4,3.4,3.4,0,0,1-2.66-1,3.92,3.92,0,0,1-.9-2.74V84.15h-1.36v-1h2.44v4.61c0,1.82.89,2.73,2.66,2.73a2.72,2.72,0,0,0,2-.84,2.59,2.59,0,0,0,.56-.9,3,3,0,0,0,.2-1.13V84.15h-1.43v-1h2.52Z" transform="translate(-21.28 -12.82)"/><path class="cls-1" d="M295.24,84.17h-1.43v-1h2.38l.1,1.36a2.48,2.48,0,0,1,1.1-1.12,3.36,3.36,0,0,1,1.57-.37,3,3,0,0,1,1,.14,3.68,3.68,0,0,1,.88.41l-.48.91a3.18,3.18,0,0,0-.68-.31,2.52,2.52,0,0,0-.73-.1,2.58,2.58,0,0,0-1.89.74,2.55,2.55,0,0,0-.69,1.87v3.74h1.4v1h-3.9v-1h1.42Z" transform="translate(-21.28 -12.82)"/><path class="cls-1" d="M309.14,90a3.7,3.7,0,0,1-1.59,1.14,5.35,5.35,0,0,1-1.95.37,4.65,4.65,0,0,1-1.69-.29,3.8,3.8,0,0,1-1.34-.84,4,4,0,0,1-.89-1.34,4.69,4.69,0,0,1-.32-1.77,4.52,4.52,0,0,1,.31-1.71,3.94,3.94,0,0,1,2.2-2.21,4.37,4.37,0,0,1,1.68-.32,5.05,5.05,0,0,1,1.7.28,3.5,3.5,0,0,1,1.37.84,3.63,3.63,0,0,1,.86,1.47,5,5,0,0,1,.18,2.1h-7.22a3.17,3.17,0,0,0,.34,1.2,3,3,0,0,0,.7.87,2.88,2.88,0,0,0,1,.54,3.77,3.77,0,0,0,1.17.19,4.5,4.5,0,0,0,.79-.08,4.1,4.1,0,0,0,.78-.22,4.24,4.24,0,0,0,.7-.37,2.35,2.35,0,0,0,.54-.5Zm-.5-3.18a2.69,2.69,0,0,0-.86-2.09,3.27,3.27,0,0,0-2.21-.72,3.48,3.48,0,0,0-1.13.18,3.22,3.22,0,0,0-1,.54,2.94,2.94,0,0,0-.7.89,3.23,3.23,0,0,0-.34,1.2Z" transform="translate(-21.28 -12.82)"/><path class="cls-1" d="M315.45,87.33a4.57,4.57,0,0,1,.32-1.77A4,4,0,0,1,318,83.34a4.5,4.5,0,0,1,1.66-.31,4.66,4.66,0,0,1,1.69.31,3.91,3.91,0,0,1,2.23,2.23,4.71,4.71,0,0,1,.32,1.76,4.61,4.61,0,0,1-.32,1.74,3.89,3.89,0,0,1-2.25,2.18,4.55,4.55,0,0,1-1.67.3,4.49,4.49,0,0,1-1.66-.3,4,4,0,0,1-1.34-.85,3.91,3.91,0,0,1-.9-1.33A4.42,4.42,0,0,1,315.45,87.33Zm7.4,0A3.66,3.66,0,0,0,322.6,86a3.13,3.13,0,0,0-.68-1,2.94,2.94,0,0,0-1-.67,3.48,3.48,0,0,0-2.49,0,3,3,0,0,0-1,.67,3.08,3.08,0,0,0-.66,1,3.66,3.66,0,0,0-.24,1.36,3.52,3.52,0,0,0,.24,1.32,2.91,2.91,0,0,0,.66,1,3,3,0,0,0,1,.65,3.19,3.19,0,0,0,1.24.24,3.27,3.27,0,0,0,1.25-.24,2.84,2.84,0,0,0,1-.65,3,3,0,0,0,.68-1A3.53,3.53,0,0,0,322.85,87.33Z" transform="translate(-21.28 -12.82)"/><path class="cls-1" d="M329.67,90.45v1h-4.26v-1h1.4V84.18h-1.65v-.93h1.65v-.71a3.17,3.17,0,0,1,.63-2.08,2.48,2.48,0,0,1,2-.77,3.21,3.21,0,0,1,.8.11,2.36,2.36,0,0,1,.74.34l-.38.85a2.53,2.53,0,0,0-.55-.27,2.37,2.37,0,0,0-.61-.08,1.48,1.48,0,0,0-1.13.44,2.07,2.07,0,0,0-.42,1.46v.71h2.41v.93h-2.41v6.27Z" transform="translate(-21.28 -12.82)"/><path class="cls-1" d="M344.52,90.34l0-1.8h1v2.88h-9.69v-1h1.49V80.82h-1.46v-1h9.42v2.85h-1l0-1.78h-5.74V85h5.67V86h-5.67v4.3Z" transform="translate(-21.28 -12.82)"/><path class="cls-1" d="M349.51,90.44h1.36v1H347v-1h1.47V84.17H347v-1h2.42l.05,1.48a3.09,3.09,0,0,1,1.31-1.26,3.62,3.62,0,0,1,1.61-.37,3.49,3.49,0,0,1,2.67,1,4,4,0,0,1,.89,2.77v3.65h1.47v1H353.6v-1h1.28V86.81a3,3,0,0,0-.62-2.08,2.56,2.56,0,0,0-1.94-.67,2.89,2.89,0,0,0-1.11.21,2.61,2.61,0,0,0-.89.59,2.8,2.8,0,0,0-.59.91,2.89,2.89,0,0,0-.22,1.16Z" transform="translate(-21.28 -12.82)"/><path class="cls-1" d="M366.16,90a3.7,3.7,0,0,1-1.59,1.14,5.39,5.39,0,0,1-1.95.37,4.62,4.62,0,0,1-1.69-.29,3.72,3.72,0,0,1-1.34-.84,3.83,3.83,0,0,1-.89-1.34,5,5,0,0,1,0-3.48,3.86,3.86,0,0,1,.88-1.34,4,4,0,0,1,1.32-.87,4.37,4.37,0,0,1,1.68-.32,5,5,0,0,1,1.69.28,3.54,3.54,0,0,1,1.38.84,3.63,3.63,0,0,1,.86,1.47,5.17,5.17,0,0,1,.18,2.1h-7.22a3.17,3.17,0,0,0,.34,1.2,2.83,2.83,0,0,0,.7.87,2.79,2.79,0,0,0,1,.54,3.66,3.66,0,0,0,1.16.19,4.32,4.32,0,0,0,.79-.08,4,4,0,0,0,.79-.22,3.78,3.78,0,0,0,.69-.37,2,2,0,0,0,.54-.5Zm-.5-3.18a2.69,2.69,0,0,0-.86-2.09,3.29,3.29,0,0,0-2.22-.72,3.52,3.52,0,0,0-1.13.18,3.3,3.3,0,0,0-.95.54,2.8,2.8,0,0,0-.7.89,3.23,3.23,0,0,0-.34,1.2Z" transform="translate(-21.28 -12.82)"/><path class="cls-1" d="M369.39,84.17H368v-1h2.37l.1,1.36a2.56,2.56,0,0,1,1.11-1.12,3.36,3.36,0,0,1,1.57-.37,3,3,0,0,1,.95.14,3.68,3.68,0,0,1,.88.41l-.48.91a3.18,3.18,0,0,0-.68-.31,2.5,2.5,0,0,0-3.31,2.51v3.74h1.39v1H368v-1h1.42Z" transform="translate(-21.28 -12.82)"/><path class="cls-1" d="M376.72,92.91A2.09,2.09,0,0,0,377,94a2.35,2.35,0,0,0,.7.74,3.54,3.54,0,0,0,1,.43,4.91,4.91,0,0,0,1.16.14,5.43,5.43,0,0,0,1.13-.12,3.33,3.33,0,0,0,1-.37,2.08,2.08,0,0,0,.72-.66,1.67,1.67,0,0,0,.27-1,1.74,1.74,0,0,0-.27-1,2.09,2.09,0,0,0-.71-.64,3.29,3.29,0,0,0-1-.37,5.35,5.35,0,0,0-1.13-.12,5.38,5.38,0,0,1-1.74-.26,3.92,3.92,0,0,1-1.35-.78,3.58,3.58,0,0,1-.88-1.27,4.38,4.38,0,0,1-.32-1.71,3.91,3.91,0,0,1,.38-1.77,3.64,3.64,0,0,1,1-1.27,4.26,4.26,0,0,1,1.39-.75,4.78,4.78,0,0,1,1.54-.25,5.26,5.26,0,0,1,1.27.16,3.31,3.31,0,0,1,1.14.5l.87-1.05.76.6L383,84.3a5.4,5.4,0,0,1,.43.52,3.6,3.6,0,0,1,.35.61,3.68,3.68,0,0,1,.24.73,4.16,4.16,0,0,1,.09.9,3.92,3.92,0,0,1-.15,1,3.75,3.75,0,0,1-.45,1,3.39,3.39,0,0,1-.76.85,2.92,2.92,0,0,1-1.12.54,3.53,3.53,0,0,1,1.79,1A2.43,2.43,0,0,1,384,93.2a2.62,2.62,0,0,1-.35,1.36,3.06,3.06,0,0,1-1,1,4.52,4.52,0,0,1-1.36.59,6.64,6.64,0,0,1-1.55.19,5.75,5.75,0,0,1-1.64-.23,4.12,4.12,0,0,1-1.31-.65,3,3,0,0,1-.88-1.07,3.06,3.06,0,0,1-.3-1.45Zm-.11-5.85a3.27,3.27,0,0,0,.25,1.34,2.76,2.76,0,0,0,1.72,1.53,3.94,3.94,0,0,0,1.25.19,3.47,3.47,0,0,0,1.31-.24,2.93,2.93,0,0,0,1-.67,2.76,2.76,0,0,0,.65-1,3.1,3.1,0,0,0,.23-1.18,3.2,3.2,0,0,0-.28-1.36,2.75,2.75,0,0,0-.72-1,2.81,2.81,0,0,0-1-.57,3.86,3.86,0,0,0-2.33,0,3,3,0,0,0-1,.56,2.75,2.75,0,0,0-.74,1A3,3,0,0,0,376.61,87.06Z" transform="translate(-21.28 -12.82)"/><path class="cls-1" d="M390.88,84.17v-1h3.64v1H393.4l-4,9.67a2.66,2.66,0,0,1-.64,1,1.94,1.94,0,0,1-.88.49,2.07,2.07,0,0,1-1.05,0,3.48,3.48,0,0,1-1.14-.49l.43-.89a2.73,2.73,0,0,0,.64.32,1.56,1.56,0,0,0,.63.08,1,1,0,0,0,.55-.22,1.49,1.49,0,0,0,.44-.6l.89-2.21-3.05-7.15H385v-1h3.61v1h-1.2L389,87.79l.91,2.38.9-2.38,1.45-3.62Z" transform="translate(-21.28 -12.82)"/><polygon class="cls-1" points="57.2 0 57.2 28.6 38.13 28.6 38.13 0 28.6 0 28.6 38.13 66.73 38.13 66.73 9.53 85.8 9.53 85.8 93.66 95.33 86.22 95.33 0 57.2 0"/><polygon class="cls-1" points="28.6 96.46 9.53 81.56 9.53 0 0 0 0 86.21 38.13 116 38.13 66.73 57.2 66.73 57.2 116.01 66.73 108.56 66.73 57.2 28.6 57.2 28.6 96.46"/></svg>