<svg xmlns="http://www.w3.org/2000/svg" xmlns:xlink="http://www.w3.org/1999/xlink" viewBox="0 0 76 31" fill="#fff" fill-rule="evenodd" stroke="#000" stroke-linecap="round" stroke-linejoin="round"><use xlink:href="#C" x=".5" y=".5"/><defs><linearGradient id="A" x1="100.02%" y1="98.76%" x2="0.56%" y2="7.39%"><stop offset="11.5%" stop-color="#6ba3be"/><stop offset="12.1%" stop-color="#6ca3bf"/><stop offset="71.3%" stop-color="#a3c6d8"/><stop offset="100%" stop-color="#bbd6e3"/></linearGradient><linearGradient id="B" x1="50.00%" y1="100.00%" x2="50.00%" y2="0.00%"><stop offset="54.6%" stop-color="#84b2ca"/><stop offset="54.9%" stop-color="#85b2ca"/><stop offset="85.3%" stop-color="#c0dae5"/><stop offset="100%" stop-color="#daf0f4"/></linearGradient></defs><symbol id="C" overflow="visible"><g stroke="none" fill-rule="nonzero"><path d="M73.099.839C72.058-.03 70.815 0 70.815 0s.778.505.199 1.623-1.001 1.293-1.661 1.78c-.964.714-1.868.852-2.684.732-1.153-.171-1.724-1.714-2.514-2.462S62.181.623 62.181.623s.658.41.147 1.269c-.383.643-.801 1.516-1.762 1.929-.402.173-1.012.168-1.591-.027s-.847-.702-1.366-1.575c-.416-.701-1.648-.961-1.648-.961s.333.479.224.979-.368.982-.866 1.341-.745.452-1.375.418c-1.088-.059-1.114-.913-1.517-1.711-.314-.621-1.436-.792-1.436-.792s.625.277.258.966c-.407.765-1.475 1.567-2.561 1.548-.744-.013-1.149-.682-1.681-1.243-.388-.41-1.213-.571-1.213-.571s.2.301-.156.797c-.384.534-1.161 1.07-1.938.997-.558-.053-.752-.409-1.189-.751s-1.308-.672-1.308-.672.087.372-.389.736-1.325.72-2.053.687c-.661-.034-.833-.247-1.241-.468-.487-.265-1.147-.542-1.147-.542s-.123.272-.605.535-1.367.578-2.319.334c-.54-.142-.903-.367-.903-.367s-.986.479-1.829.481c-.974.002-1.734-.481-1.734-.481s-.623.457-1.742.482c-1.121.018-1.814-.482-1.814-.482s-.798.532-1.818.482-1.476-.482-1.476-.482h0s-1.041.506-1.779.482c-.914-.027-1.698-.482-1.698-.482s-1.042.492-1.848.482c-.885-.012-1.683-.482-1.683-.482s-.787.494-1.828.482c-.97-.012-1.812-.426-1.812-.426v4.935h63.364v-6.08c-.787-.425-1.135-1.037-1.75-1.55z" fill="url(#A)"/><path d="M74.85 7.269s-.987.479-1.83.481c-.974.002-1.733-.481-1.733-.481s-.623.458-1.743.482c-1.121.018-1.814-.482-1.814-.482s-.798.532-1.818.482-1.476-.482-1.476-.482-.712.499-1.787.481-1.723-.481-1.723-.481-.965.511-1.879.482-1.697-.482-1.697-.482-1.041.492-1.849.482c-.885-.012-1.683-.482-1.683-.482s-.787.494-1.829.482c-.969-.012-1.698-.482-1.698-.482s-.886.479-1.843.481c-.925.002-1.719-.481-1.719-.481s-.933.479-1.863.481c-.84.002-1.688-.481-1.688-.481s-.85.484-1.85.482c-.947-.003-1.711-.482-1.711-.482s-1.086.479-1.874.481c-.708.002-1.687-.481-1.687-.481s-.708.506-1.828.482c-.939-.021-1.682-.482-1.682-.482s-.986.479-1.829.481c-.974.002-1.734-.481-1.734-.481s-.623.458-1.742.482c-1.121.018-1.814-.482-1.814-.482s-.798.532-1.818.482-1.476-.482-1.476-.482h0s-1.041.506-1.779.482c-.914-.027-1.698-.482-1.698-.482s-1.042.492-1.848.482c-.885-.012-1.683-.482-1.683-.482s-.787.494-1.828.482c-.97-.012-1.812-.426-1.812-.426v21.356H74.85V7.269z" fill="url(#B)"/><path d="M60.701 14.084c-1.943 0-24.208.243-28.534-1.098-3.889-1.205-3.665.099-10.411-5.563-3.529-2.961-4.878-2.021-5.943-2.828C12.286 1.92 4.014 2.677 0 2.677v26.582h64.53H74.85V12.537c-4.274-.034-8.917 1.548-14.148 1.548z" fill="#ceb59b"/></g></symbol></svg>